<svg width="31" height="30" viewBox="0 0 31 30" fill="none" xmlns="http://www.w3.org/2000/svg">
<mask id="mask0_140_446" style="mask-type:alpha" maskUnits="userSpaceOnUse" x="0" y="0" width="31" height="30">
<rect x="0.666687" width="30" height="30" fill="#D9D9D9"/>
</mask>
<g mask="url(#mask0_140_446)">
<path d="M12.6042 17.875L22.6354 7.84375C23.0313 7.44792 23.5 7.25 24.0417 7.25C24.5834 7.25 25.0521 7.44792 25.4479 7.84375C25.8438 8.23958 26.0417 8.70833 26.0417 9.25C26.0417 9.79167 25.8438 10.2604 25.4479 10.6563L14.0104 22.0938C13.6146 22.4896 13.1459 22.6875 12.6042 22.6875C12.0625 22.6875 11.5938 22.4896 11.1979 22.0938L5.88544 16.7812C5.4896 16.3854 5.29169 15.9167 5.29169 15.375C5.29169 14.8333 5.4896 14.3646 5.88544 13.9688C6.28127 13.5729 6.75002 13.375 7.29169 13.375C7.83335 13.375 8.3021 13.5729 8.69794 13.9688L12.6042 17.875Z" fill="#454846"/>
</g>
</svg>
