<svg width="31" height="30" viewBox="0 0 31 30" fill="none" xmlns="http://www.w3.org/2000/svg">
<mask id="mask0_140_451" style="mask-type:alpha" maskUnits="userSpaceOnUse" x="0" y="0" width="31" height="30">
<rect x="0.333252" width="30" height="30" fill="#D9D9D9"/>
</mask>
<g mask="url(#mask0_140_451)">
<path d="M15.3333 17.75L9.70825 23.375C9.33325 23.75 8.87492 23.9375 8.33325 23.9375C7.79159 23.9375 7.33325 23.75 6.95825 23.375C6.58325 23 6.39575 22.5417 6.39575 22C6.39575 21.4583 6.58325 21 6.95825 20.625L12.5833 15L6.95825 9.375C6.58325 9 6.39575 8.54167 6.39575 8C6.39575 7.45833 6.58325 7 6.95825 6.625C7.33325 6.25 7.79159 6.0625 8.33325 6.0625C8.87492 6.0625 9.33325 6.25 9.70825 6.625L15.3333 12.25L20.9583 6.625C21.3333 6.25 21.7916 6.0625 22.3333 6.0625C22.8749 6.0625 23.3333 6.25 23.7083 6.625C24.0833 7 24.2708 7.45833 24.2708 8C24.2708 8.54167 24.0833 9 23.7083 9.375L18.0833 15L23.7083 20.625C24.0833 21 24.2708 21.4583 24.2708 22C24.2708 22.5417 24.0833 23 23.7083 23.375C23.3333 23.75 22.8749 23.9375 22.3333 23.9375C21.7916 23.9375 21.3333 23.75 20.9583 23.375L15.3333 17.75Z" fill="#D40606"/>
</g>
</svg>
