<svg width="214" height="64" viewBox="0 0 214 64" fill="none" xmlns="http://www.w3.org/2000/svg">
<g clip-path="url(#clip0_2319_3184)">
<path fill-rule="evenodd" clip-rule="evenodd" d="M29.6608 64C28.7892 64 27.9433 63.6524 27.3343 63.0325L27.3331 63.0312L0.957818 36.7338C0.347635 36.1139 0 35.2825 0 34.4134V19.0494C0 8.52555 8.54743 0 19.098 0H49.6789C60.2283 0 68.7757 8.52555 68.7769 19.0506V44.9506C68.7769 55.4744 60.2295 64 49.6789 64H29.6608ZM14.4815 9.36547C10.3476 11.6324 7.52519 16.0167 7.52519 21.0623L7.52762 21.0647V25.5864C7.52762 26.9198 7.79017 28.252 8.40157 29.4359C9.27552 31.1425 10.474 32.6375 11.8986 33.8336H13.1846C15.832 33.8336 18.342 34.4438 20.5773 35.528C21.4014 35.9145 22.1878 36.3752 22.9378 36.8857L47.852 36.7982C49.9001 36.7982 51.6237 39.0153 51.6237 41.6311V42.0176C51.6237 44.6467 49.9001 46.8638 47.852 46.8638H29.8431C29.9683 47.3622 30.068 47.8605 30.1433 48.371C30.294 49.2182 30.3682 50.1019 30.3682 50.9868V56.4554H47.852C55.2326 56.4554 61.2517 49.9779 61.2517 42.0176V41.6311C61.2517 33.6707 55.2313 27.1933 47.8386 27.1933L20.102 27.293C18.0539 27.293 16.3303 25.088 16.3303 22.4601C16.3303 19.8322 18.0539 17.6273 20.1142 17.6273L60.8518 17.5397C60.7934 17.3041 60.7108 17.0836 60.6297 16.8669C60.6078 16.8085 60.5861 16.7505 60.565 16.6925C60.5589 16.6743 60.5589 16.6558 60.5589 16.6371C60.5589 16.6184 60.5589 16.5995 60.5528 16.5807C60.5294 16.5037 60.4967 16.4315 60.4633 16.3578C60.4429 16.3127 60.4222 16.2672 60.4033 16.2197L60.3875 16.1829C60.3174 16.0202 60.2474 15.8577 60.1785 15.6837C60.0411 15.3846 59.9037 15.0856 59.7409 14.7988C59.6539 14.6368 59.5668 14.4761 59.4798 14.3154L59.4783 14.3126C59.2911 14.0014 59.0918 13.6902 58.8791 13.4034C58.8457 13.3561 58.8142 13.3087 58.783 13.2619C58.7324 13.1859 58.6829 13.1116 58.6287 13.0424C58.3297 12.6437 58.0039 12.2572 57.6551 11.8961C57.6172 11.8501 57.5744 11.8136 57.5326 11.7781C57.506 11.7554 57.4799 11.7331 57.4557 11.709C57.1689 11.4099 56.8686 11.1231 56.5441 10.8618C56.4754 10.8058 56.4067 10.753 56.3381 10.7001C56.2694 10.6472 56.2007 10.5943 56.132 10.5384C55.8695 10.3391 55.5948 10.1397 55.3201 9.95256C55.2388 9.9028 55.1578 9.85304 55.0767 9.80329C54.9955 9.75337 54.9142 9.70346 54.8327 9.65354C54.5529 9.48403 54.272 9.33763 53.9922 9.19181L53.9709 9.18071C53.9267 9.15863 53.8834 9.13654 53.8405 9.11467C53.7134 9.04988 53.59 8.98697 53.4591 8.93153C53.4154 8.91269 53.3716 8.89081 53.3279 8.86893C53.2841 8.84705 53.2403 8.82517 53.1966 8.80634C53.0577 8.74573 52.9136 8.69736 52.7674 8.64832C52.7025 8.62654 52.6372 8.60464 52.5718 8.58147C52.4223 8.51826 52.2728 8.45627 52.1099 8.39428C51.4232 8.17063 50.6866 8.07095 49.9621 8.02112C49.9163 8.01412 49.8704 8.01078 49.8246 8.00745C49.7829 8.00441 49.7413 8.00138 49.6996 7.99559C49.6312 7.99143 49.5627 7.98568 49.4942 7.97994C49.3628 7.96893 49.2313 7.95791 49.1003 7.95791H48.7503L20.102 8.0199C18.3031 8.0199 16.5929 8.40643 15.0188 9.10413C14.9501 9.14182 14.8814 9.17281 14.8128 9.20381C14.7441 9.2348 14.6754 9.2658 14.6067 9.30348C14.6047 9.30479 14.6026 9.30611 14.6006 9.30744C14.5649 9.33051 14.5287 9.35397 14.4815 9.36547ZM13.1822 36.1358H3.15424H3.15302C2.90384 36.1358 2.76649 36.4481 2.95368 36.622L27.5689 61.1861C27.7561 61.3611 28.0684 61.2359 28.0684 60.9746V50.9844C28.0684 50.2125 28.0052 49.4528 27.8934 48.7174C27.1447 43.7971 23.9722 39.6862 19.6389 37.5931C17.6783 36.6584 15.4928 36.1358 13.1822 36.1358ZM88.2238 14.0209C88.2238 11.557 90.0872 10.1908 93.4784 10.1908C96.8697 10.1908 98.7331 11.5048 98.7331 15.2753H105.844C105.844 7.72697 101.027 3.24418 93.4784 3.24418C85.9301 3.24418 81.1131 6.79953 81.1131 13.7984C81.1131 21.5839 87.2169 23.2304 92.5322 24.6642C96.6317 25.77 100.262 26.7493 100.262 30.3208C100.262 34.1508 97.4714 35.4648 93.916 35.4648C89.8113 35.4648 87.0204 33.2234 87.0204 29.3933H79.9097C79.9097 36.9416 86.093 42.4114 93.6413 42.4114C101.19 42.4114 107.373 37.8764 107.373 30.3208C107.373 21.7983 101.042 20.3651 95.6604 19.147C91.6827 18.2466 88.2238 17.4636 88.2238 14.0221V14.0209ZM181.558 35.4636C184.133 35.4636 185.386 34.5872 186.263 33.8822L186.265 33.881L194.748 33.9333C192.558 38.9132 187.578 42.409 181.781 42.409C173.899 42.409 167.664 35.9595 167.664 28.3517C167.664 20.7438 173.684 14.1825 181.559 14.1825C188.343 14.1825 195.564 18.9996 195.839 27.6989C195.898 28.9533 195.786 30.1567 195.623 31.0914H175.323C175.983 33.8239 178.389 35.4636 181.558 35.4636ZM188.236 25.3992C187.138 22.8308 184.517 21.1316 181.779 21.1316H181.778C178.601 21.1316 176.42 22.8308 175.321 25.3992H188.236ZM199.694 27.5883C199.694 18.5632 204.726 14.5107 211.399 14.5107H211.726V21.4573H211.452C208.334 21.4573 206.805 23.3207 206.805 27.5883V41.9799H199.694V27.5883ZM150.757 14.1837C142.993 14.1837 136.699 20.4776 136.699 28.3006V49.9099H143.87V40.3317C145.777 41.7052 147.967 42.4102 150.758 42.4102C158.529 42.4102 164.875 36.1236 164.875 28.3006C164.875 20.4776 158.529 14.1837 150.758 14.1837H150.757ZM150.816 35.4636C146.764 35.4636 143.758 32.3458 143.758 28.3006C143.758 24.2554 146.764 21.1303 150.816 21.1303C154.869 21.1303 157.763 24.2481 157.763 28.3006C157.763 32.3531 154.86 35.4636 150.816 35.4636ZM121.661 35.4636C125.165 35.4636 126.59 33.3863 126.59 29.0068H126.589V15.5864H133.699V29.0068C133.699 38.2033 128.66 42.4114 121.661 42.4114C114.662 42.4114 109.63 38.2033 109.63 29.0068V15.5864H116.741V29.0068C116.741 33.3851 118.157 35.4636 121.661 35.4636ZM110.807 53.8189C111.884 53.8189 112.779 54.4157 113.193 55.3116H114.775C114.283 53.5904 112.71 52.3627 110.807 52.3627C108.501 52.3627 106.676 54.1641 106.676 56.4699C106.676 58.7757 108.5 60.5771 110.807 60.5771C112.688 60.5771 114.237 59.3835 114.753 57.6976H113.159C112.722 58.546 111.851 59.1197 110.808 59.1197C109.315 59.1197 108.169 57.9601 108.169 56.4699C108.169 54.9797 109.316 53.8201 110.808 53.8201L110.807 53.8189ZM80.4045 52.4539H82.9971C84.4193 52.4539 85.5776 53.5102 85.5776 54.9433C85.5776 56.3763 84.4193 57.5347 82.9971 57.5347H81.8959V60.4835H80.4045V52.4539ZM81.8959 56.205H82.9971C83.6851 56.205 84.0874 55.6337 84.0874 54.9445C84.0874 54.2553 83.6851 53.7849 82.9971 53.7849H81.8959V56.205ZM209.874 53.007H209.029V55.5036H208.419V53.007H207.574V52.4539H209.874V53.007ZM213.617 52.4539V55.5036H213.006V53.7351L212.227 55.5036H211.715L210.936 53.7351V55.5036H210.326V52.4539H210.936L211.973 54.6673L213.006 52.4539H213.617ZM91.0766 52.4539L88.163 60.4835H89.6885L90.3084 58.7393H93.3374L93.9561 60.4835H95.4828L92.5692 52.4539H91.0778H91.0766ZM90.8019 57.3402L91.8229 54.4729L92.8439 57.3402H90.8019ZM100.19 53.9101H98.1253V52.4539H103.747V53.9101H101.682V60.4835H100.19V53.9101ZM120.346 55.562H123.329V52.4539H124.82V60.4835H123.329V56.9622H120.346V60.4835H118.855V52.4539H120.346V55.562ZM140.086 53.8189C141.165 53.8189 142.059 54.4157 142.472 55.3116H144.056C143.562 53.5904 141.99 52.3627 140.086 52.3627C137.78 52.3627 135.955 54.1641 135.955 56.4699C135.955 58.7757 137.78 60.5771 140.086 60.5771C141.967 60.5771 143.516 59.3835 144.033 57.6976H142.439C142.003 58.546 141.131 59.1197 140.087 59.1197C138.597 59.1197 137.449 57.9601 137.449 56.4699C137.449 54.9797 138.597 53.8201 140.087 53.8201L140.086 53.8189ZM147.511 56.4699C147.511 54.1641 149.336 52.3627 151.642 52.3627C153.947 52.3627 155.772 54.1641 155.772 56.4699C155.772 58.7757 153.949 60.5771 151.642 60.5771C149.335 60.5771 147.511 58.7757 147.511 56.4699ZM149.003 56.4699C149.003 57.9601 150.149 59.1197 151.642 59.1197C153.132 59.1197 154.279 57.9601 154.279 56.4699C154.279 54.9797 153.133 53.8201 151.642 53.8201C150.15 53.8201 149.003 54.9797 149.003 56.4699ZM163.646 58.281L161.112 52.4539H159.62V60.4835H161.112V55.8269L163.016 60.4835H164.267L166.171 55.8269V60.4835H167.662V52.4539H166.171L163.646 58.281ZM172.265 52.432H174.858C176.28 52.432 177.439 53.4883 177.439 54.9214C177.439 56.3545 176.28 57.5128 174.858 57.5128H173.756V60.4617H172.265V52.432ZM173.756 56.1831H174.858C175.546 56.1831 175.947 55.6118 175.947 54.9226C175.947 54.2334 175.546 53.763 174.858 53.763H173.756V56.1831ZM182.439 52.4539L179.525 60.4835H181.052L181.671 58.7393H184.7L185.32 60.4835H186.845L183.931 52.4539H182.44H182.439ZM182.163 57.3402L183.184 54.4729L184.205 57.3402H182.163ZM192.009 52.4539L195.45 57.7645V52.4539H196.941V60.4835H195.45L192.009 55.1839V60.4835H190.517V52.4539H192.009ZM203.373 55.2994L201.686 52.4539H200.047L202.628 56.8018V60.4835H204.119V56.8018L206.711 52.4539H205.07L203.373 55.2994ZM120.477 9.96107C120.477 8.73341 120.876 8.14996 121.858 8.14996C122.84 8.14996 123.239 8.73341 123.239 9.96107V12.8442H125.235V9.96107C125.235 7.38298 123.822 6.20151 121.858 6.20151C121.352 6.20151 120.891 6.30969 120.477 6.58561V3.25512H118.481V12.8442H120.477V9.96107ZM112.432 12.8588H114.428V5.21938H117.191V3.26971H109.669V5.21938H112.432V12.8588ZM129.76 5.94868C131.414 5.94868 133.174 7.12164 133.241 9.2427H133.239C133.252 9.54901 133.225 9.84194 133.185 10.0692H128.238C128.399 10.7366 128.986 11.1365 129.759 11.1365C130.385 11.1365 130.692 10.9225 130.905 10.7499L132.973 10.7633C132.439 11.9764 131.226 12.8297 129.812 12.8297C127.893 12.8297 126.372 11.258 126.372 9.40315C126.372 7.54829 127.84 5.94868 129.76 5.94868ZM129.814 7.6431C129.04 7.6431 128.507 8.05637 128.241 8.68357H131.388C131.12 8.05637 130.48 7.6431 129.814 7.6431Z" fill="#2F2F2F"/>
</g>
<defs>
<clipPath id="clip0_2319_3184">
<rect width="213.617" height="64" fill="white"/>
</clipPath>
</defs>
</svg>
